<svg xmlns="http://www.w3.org/2000/svg" xmlns:xlink="http://www.w3.org/1999/xlink" viewBox="0 0 512 512"><defs><style>.cls-1{fill:url(#linear-gradient);}.cls-2{fill:#fdfeff;}.cls-3{fill:#fcfeff;}</style><linearGradient id="linear-gradient" x1="261.22" y1="-2.25" x2="251.1" y2="498.41" gradientUnits="userSpaceOnUse"><stop offset="0" stop-color="#3b464a"/><stop offset="0.04" stop-color="#3b484e"/><stop offset="0.3" stop-color="#385261"/><stop offset="0.48" stop-color="#375668"/><stop offset="0.99" stop-color="#ac9978"/><stop offset="1" stop-color="#af9b78"/></linearGradient></defs><g id="Layer_2" data-name="Layer 2"><g id="Layer_1-2" data-name="Layer 1"><rect class="cls-1" width="512" height="512" rx="14.55"/><path class="cls-2" d="M481.18,498.69H30.82a17.52,17.52,0,0,1-17.51-17.51V30.82A17.52,17.52,0,0,1,30.82,13.31H481.18a17.52,17.52,0,0,1,17.51,17.51V481.18A17.52,17.52,0,0,1,481.18,498.69ZM30.82,20A10.87,10.87,0,0,0,20,30.82V481.18A10.87,10.87,0,0,0,30.82,492H481.18A10.87,10.87,0,0,0,492,481.18V30.82A10.87,10.87,0,0,0,481.18,20Z"/><path class="cls-3" d="M320.68,141.12,272.28,89.3h141.5V234.46l-50.4-51.19s-67.17,65.8-98.43,97c-12.82,12.79-27.74,19.28-46,18.91-19.93-.4-66-.09-66-.09v72.58s130.89-.11,193.67.14c7.63,0,13.72-5.17,13.68-13.74-.24-41.85,0-130.26,0-130.26s32,31.45,46.28,45.56a22.73,22.73,0,0,1,7.18,17.18c-.15,25.37.22,50.75,0,76.12A56.13,56.13,0,0,1,357.4,422.7c-84.36-.19-258.87-.06-258.87-.06s-.68-83.32-.23-121.87c.23-19.9,10.6-34.49,27.23-44.74a61.11,61.11,0,0,1,32.84-8.92c11.54,0,23.07-.05,34.6,0a50.2,50.2,0,0,0,36.48-15C258.91,203.11,320.68,141.12,320.68,141.12Z"/><circle class="cls-3" cx="178.58" cy="175.65" r="45.49"/></g></g></svg>