<svg xmlns="http://www.w3.org/2000/svg" xmlns:xlink="http://www.w3.org/1999/xlink" viewBox="0 0 782 135.89"><defs><style>.cls-1{font-size:89.54px;fill:#2f505b;font-family:Poppins-Bold, Poppins;font-weight:700;}.cls-2{font-family:Poppins-Regular, Poppins;font-weight:400;}.cls-3{fill:url(#linear-gradient);}.cls-4{fill:#fdfeff;}.cls-5{fill:#fcfeff;}</style><linearGradient id="linear-gradient" x1="49.71" y1="-0.41" x2="47.79" y2="94.84" gradientUnits="userSpaceOnUse"><stop offset="0" stop-color="#3b464a"/><stop offset="0.04" stop-color="#3b484e"/><stop offset="0.3" stop-color="#385261"/><stop offset="0.48" stop-color="#375668"/><stop offset="0.99" stop-color="#ac9978"/><stop offset="1" stop-color="#af9b78"/></linearGradient></defs><g id="Layer_2" data-name="Layer 2"><g id="Layer_1-2" data-name="Layer 1"><text class="cls-1" transform="translate(134.91 81.63)">Smart<tspan class="cls-2" x="285.36" y="0">Resume</tspan></text><rect class="cls-3" width="97.44" height="97.44" rx="3.43"/><path class="cls-4" d="M91.58,94.91H5.86a3.34,3.34,0,0,1-3.33-3.33V5.86A3.34,3.34,0,0,1,5.86,2.53H91.58a3.34,3.34,0,0,1,3.33,3.33V91.58A3.34,3.34,0,0,1,91.58,94.91ZM5.86,3.8A2.07,2.07,0,0,0,3.8,5.86V91.58a2.06,2.06,0,0,0,2.06,2.06H91.58a2.06,2.06,0,0,0,2.06-2.06V5.86A2.06,2.06,0,0,0,91.58,3.8Z"/><path class="cls-5" d="M59.26,30l-7.89-8.44H74.43V45.21l-8.21-8.34s-10.95,10.72-16,15.8a9.85,9.85,0,0,1-7.49,3.08c-3.25-.06-10.75,0-10.75,0V67.57s21.33,0,31.56,0a2.13,2.13,0,0,0,2.23-2.24c0-6.82,0-21.23,0-21.23l7.54,7.43a3.66,3.66,0,0,1,1.17,2.8c0,4.13,0,8.27,0,12.4a9.14,9.14,0,0,1-9.19,9.13c-13.74,0-42.18,0-42.18,0S23,62.3,23,56a8.41,8.41,0,0,1,4.44-7.29,10,10,0,0,1,5.35-1.46c1.88,0,3.76,0,5.64,0a8.14,8.14,0,0,0,5.94-2.44C49.2,40.1,59.26,30,59.26,30Z"/><circle class="cls-5" cx="36.11" cy="35.63" r="7.41"/></g></g></svg>